<svg xmlns="http://www.w3.org/2000/svg" width="581" height="174" viewBox="0 0 581 174">
  <defs>
    <style>
      .cls-1 {
        fill-rule: evenodd;
      }
    </style>
  </defs>
  <g id="logo" data-name="logo">
    <path id="ON" class="cls-1" d="M379.071,156.734q-2.188-12.811-7.031-19.765-7.344-10.39-22.5-10.391-16.954,0-24.063,13.437-7.03,13.361-7.031,45.547,0,36.094,7.109,50.235,7.188,14.454,24.766,14.453,16.717,0,23.828-13.438t7.11-45.39q0-22.812-2.188-34.688h0Zm-17.891,69.61q-3.046,9.063-11.25,9.062-8.359,0-11.406-9.687-2.97-10.235-2.969-36.719,0-28.749,2.813-38.281,2.889-9.453,11.562-9.454t11.485,10.313q2.813,10.236,2.812,41.562,0,24.221-3.047,33.2h0Zm36.172,22.421h16.016l-0.859-52.578q0-2.265-.04-4.062t-0.117-3.047l-0.859-14.922-0.859-12.266q-0.079-1.014-.235-2.461t-0.39-3.476q0.468,2.032.82,3.594t0.508,2.656q1.875,8.751,4.1,16.719t4.727,15.547l18.2,54.3H453.6V128.14H437.274v45q0,10,.938,21.329t2.89,25.312a439.586,439.586,0,0,0-12.422-43.516L412.509,128.14H397.352V248.765Z" transform="translate(-268 -98)"/>
    <path id="Array" class="cls-1" d="M287.8,244.448q-0.363,8.466-.36,13.876a18.773,18.773,0,0,0,.54,5.586q1.08,2.523,4.68,2.523a64.392,64.392,0,0,0,6.75-.54,64.681,64.681,0,0,1,6.93-.54h1.44q3.6,0,10.8.54t10.8,0.54q9.539,0,9.54-6.3,0-5.94-10.08-5.94a70.088,70.088,0,0,0-8.73.81,70.5,70.5,0,0,1-8.91.81q-5.041,0-6.48-1.08-1.983-1.443-2.34-6.3l-0.72-9.72q-0.54-7.2-.54-23.22v-55.44q0-16.019.54-23.22l0.72-9.72q0.358-4.86,2.07-6.21t6.75-1.35a56.64,56.64,0,0,1,8.82.99,56.2,56.2,0,0,0,8.82.99q10.079,0,10.08-5.94,0-6.3-9.54-6.3-4.32,0-9,.45t-13.86.45q-2.341,0-6.93-.45t-6.93-.45a5.653,5.653,0,0,0-3.6.9q-1.62,1.443-1.62,7.208,0,5.228.36,13.7t0.36,14.057v85.416Q288.164,235.979,287.8,244.448Zm194.039,3.985q-0.363,4.86-2.07,6.12t-6.75,1.26a70.9,70.9,0,0,1-9.09-.81,69.965,69.965,0,0,0-8.55-.81q-10.083,0-10.08,5.94,0,6.3,9.54,6.3a78.6,78.6,0,0,0,9-.54,133.5,133.5,0,0,1,14.04-.54,62.372,62.372,0,0,1,6.84.54,62.266,62.266,0,0,0,6.84.54,5.729,5.729,0,0,0,3.87-1.173q1.35-1.173,1.35-6.947,0-5.231-.36-13.8t-0.36-29.5V160.531q0-21.47.36-29.588t0.36-13.71a18.818,18.818,0,0,0-.54-5.595q-1.08-2.522-4.68-2.525a64.681,64.681,0,0,0-6.93.54,64.736,64.736,0,0,1-6.93.54,134.315,134.315,0,0,1-13.86-.54,81.9,81.9,0,0,0-9-.54q-9.543,0-9.54,6.3,0,5.94,10.08,5.94a63.038,63.038,0,0,0,8.73-.9,63.706,63.706,0,0,1,8.91-.9q5.037,0,6.75,1.35t2.07,6.21l0.72,9.72q0.54,7.383.54,23.22v55.44q0,15.841-.54,23.22Z" transform="translate(-268 -98)"/>
    <path id="Name" class="cls-1" d="M553.778,165.615q5.495-7,5.5-18.9,0-10.989-5.425-17.43t-14.595-6.44q-9.591,0-15.05,6.615t-5.46,18.235q0,11.481,5.425,18.2t14.735,6.72A17.912,17.912,0,0,0,553.778,165.615Zm-4.305-32.655q3.639,5.076,3.64,14.455,0,9.311-3.815,14.735a12.714,12.714,0,0,1-20.685.21q-3.711-5.214-3.71-14.735,0-9.379,3.71-14.56A13.172,13.172,0,0,1,549.473,132.96Zm26.67-6.34a5.83,5.83,0,0,0,.07-1.048q0-2.026-1.61-2.027a15.534,15.534,0,0,0-2.1.21,11.551,11.551,0,0,1-3.99.07l-1.68-.21a11.05,11.05,0,0,0-1.33-.07q-2.8,0-2.8,2.31,0,2.241,2.38,2.24a7.286,7.286,0,0,0,1.26-.14q1.61-.279,1.82-0.28a1.956,1.956,0,0,1,1.96,1.616,21.508,21.508,0,0,1,.21,2.809v23.393l-0.071,4.918a30.007,30.007,0,0,1-.389,5.656,1.468,1.468,0,0,1-1.589,1.088,17.5,17.5,0,0,1-2.048-.392,3.056,3.056,0,0,1-.637-0.1h-0.494q-2.4,0-2.4,2.17,0,2.52,2.93,2.52h0.349a29.608,29.608,0,0,0,3.278-.28,29.639,29.639,0,0,1,3.348-.28,35.713,35.713,0,0,1,3.767.28,35.285,35.285,0,0,0,3.558.28q2.859,0,2.86-2.31a2.084,2.084,0,0,0-2.333-2.38,8.819,8.819,0,0,0-1.131.14,9.127,9.127,0,0,1-1.768.35q-1.837,0-1.908-3.564V141.856q0-9.855.49-15.236h0Zm21.629,0a5.83,5.83,0,0,0,.07-1.048q0-2.026-1.61-2.027a15.534,15.534,0,0,0-2.1.21,11.551,11.551,0,0,1-3.99.07l-1.68-.21a11.05,11.05,0,0,0-1.33-.07q-2.8,0-2.8,2.31,0,2.241,2.38,2.24a7.286,7.286,0,0,0,1.26-.14q1.61-.279,1.82-0.28a1.956,1.956,0,0,1,1.96,1.616,21.508,21.508,0,0,1,.21,2.809v23.393l-0.071,4.918a30.135,30.135,0,0,1-.388,5.656,1.47,1.47,0,0,1-1.59,1.088,17.539,17.539,0,0,1-2.048-.392,3.066,3.066,0,0,1-.637-0.1h-0.494q-2.4,0-2.4,2.17,0,2.52,2.93,2.52h0.349a29.59,29.59,0,0,0,3.278-.28,29.657,29.657,0,0,1,3.348-.28,35.7,35.7,0,0,1,3.767.28,35.285,35.285,0,0,0,3.558.28q2.859,0,2.86-2.31a2.084,2.084,0,0,0-2.333-2.38,8.839,8.839,0,0,0-1.131.14,9.122,9.122,0,0,1-1.767.35q-1.838,0-1.909-3.564V141.856q0-9.855.49-15.236h0ZM619.317,144.9q0.056-3.78.113-4.34c0-.186.018-0.466,0.056-0.84s0.055-.653.055-0.84q0-2.73-2.03-2.73a12.777,12.777,0,0,0-1.715.175,12.626,12.626,0,0,1-1.715.175q-0.63,0-2.87-.28a17.629,17.629,0,0,0-1.89-.07q-3.081,0-3.08,2.38,0,2.241,2.543,2.24a7.222,7.222,0,0,0,1.518-.245,7.38,7.38,0,0,1,1.591-.245q1.765,0,2.118,4.41V162.6q-0.354,4.481-2.048,4.48a9.614,9.614,0,0,1-1.661-.21,9.619,9.619,0,0,0-1.659-.21,2.084,2.084,0,0,0-2.4,2.31q0,2.381,2.81,2.38a36.319,36.319,0,0,0,3.652-.35,33.361,33.361,0,0,1,4.074-.28,27.454,27.454,0,0,1,3.407.315,27.458,27.458,0,0,0,3.406.315,3.44,3.44,0,0,0,2.213-.7,2.089,2.089,0,0,0,.878-1.68q0-2.31-2.66-2.31a2.989,2.989,0,0,0-1.05.14,10.467,10.467,0,0,1-1.75.35q-1.541,0-1.89-3.15-0.071-.63-0.07-4.13v-9.1q0-3.009.056-5.88h0Zm-0.931-13.615a3.771,3.771,0,0,0,1.155-2.765,3.66,3.66,0,0,0-1.155-2.73,3.973,3.973,0,0,0-5.53,0,3.66,3.66,0,0,0-1.155,2.73A3.91,3.91,0,0,0,618.386,131.28Zm-82.317,78.295a2.848,2.848,0,0,0-2.865-1.47q-1.05,0-3.145.21t-3.144.21q-1.887,0-5.38-.35c-0.466-.046-0.839-0.07-1.118-0.07q-3,0-3,2.45a2,2,0,0,0,2.222,2.31,13.81,13.81,0,0,0,1.946-.21,9.824,9.824,0,0,1,1.389-.14q3.613,0,3.613,5.25v28.14q0,5.25-3.57,5.25a5.583,5.583,0,0,1-1.47-.21q-1.541-.139-1.89-0.14a1.95,1.95,0,0,0-2.24,2.17q0,2.451,3.01,2.45h0.56a2.9,2.9,0,0,1,.49-0.07l3.43-.42a40.388,40.388,0,0,1,4.69-.35,30.92,30.92,0,0,1,4.48.35l2.87,0.42a2.926,2.926,0,0,1,.49.07h0.42q3.15,0,3.15-2.378a1.981,1.981,0,0,0-2.24-2.242q-0.561,0-1.68.1t-1.68.1q-3.57,0-3.57-5.25v-32.55l18.428,38.15q2.393,4.9,5.839,4.9a3.946,3.946,0,0,0,3.762-1.957q1.091-1.954,1.091-6.779V217.757q0.141-3.074.783-3.983t2.78-.909h1.5q2.85,0,2.851-2.345,0-2.415-3.01-2.415h-0.49a3.1,3.1,0,0,1-.49.065q-1.4.194-2.45,0.32a39.924,39.924,0,0,1-4.83.385,29.7,29.7,0,0,1-3.92-.28l-3.15-.42a4.215,4.215,0,0,0-.91-0.07q-3.15,0-3.15,2.52a2.271,2.271,0,0,0,2.24,2.24,11.911,11.911,0,0,0,1.68-.175,12.037,12.037,0,0,1,1.68-.175q2.87,0,3.5,3.64,0.069,0.561.07,6.02v28.21l-18.8-39.13Zm47.619,19.32q0.056-3.78.113-4.34,0-.279.055-0.84c0.038-.373.056-0.653,0.056-0.84q0-2.73-2.03-2.73a12.777,12.777,0,0,0-1.715.175,12.626,12.626,0,0,1-1.715.175q-0.63,0-2.87-.28a17.629,17.629,0,0,0-1.89-.07q-3.081,0-3.08,2.38,0,2.241,2.543,2.24a7.231,7.231,0,0,0,1.518-.245,7.38,7.38,0,0,1,1.591-.245q1.766,0,2.118,4.41v17.92q-0.354,4.481-2.048,4.48a9.614,9.614,0,0,1-1.661-.21,9.619,9.619,0,0,0-1.659-.21,2.084,2.084,0,0,0-2.4,2.31q0,2.381,2.81,2.38a36.319,36.319,0,0,0,3.652-.35,33.361,33.361,0,0,1,4.074-.28,27.454,27.454,0,0,1,3.407.315,27.458,27.458,0,0,0,3.406.315,3.44,3.44,0,0,0,2.213-.7,2.089,2.089,0,0,0,.878-1.68q0-2.31-2.66-2.31a2.989,2.989,0,0,0-1.05.14,10.467,10.467,0,0,1-1.75.35q-1.54,0-1.89-3.15-0.071-.63-0.07-4.13v-9.1q0-3.009.056-5.88h0Zm-0.931-13.615a3.771,3.771,0,0,0,1.155-2.765,3.66,3.66,0,0,0-1.155-2.73,3.973,3.973,0,0,0-5.53,0,3.66,3.66,0,0,0-1.155,2.73A3.91,3.91,0,0,0,582.757,215.28ZM621.5,223.3a14.457,14.457,0,0,0-10.85-4.41,15.192,15.192,0,0,0-12.04,5.32q-4.62,5.321-4.62,13.86,0,8.331,4.34,13.265t11.69,4.935a16.829,16.829,0,0,0,10.5-3.535q4.62-3.534,4.62-8.085,0-2.66-2.59-2.66a2.172,2.172,0,0,0-2.31,1.68l-0.63,2.03a7.684,7.684,0,0,1-3.325,4.27,10.435,10.435,0,0,1-13.475-1.82,12.592,12.592,0,0,1-3.15-8.75,1.02,1.02,0,0,1,.28-0.805,1.953,1.953,0,0,1,1.19-.245h22.26q1.68,0,2.03-.595a8.617,8.617,0,0,0,.35-3.255A15.446,15.446,0,0,0,621.5,223.3Zm-17.92,3.045a10.552,10.552,0,0,1,7.14-2.835,9.12,9.12,0,0,1,6.58,2.73,8.705,8.705,0,0,1,2.8,6.44q0,0.981-1.47.98H601.9q-1.541,0-1.54-.98A8.33,8.33,0,0,1,603.582,226.34Zm36.19-6.195h-0.21l-1.68.28h-1.26a22.256,22.256,0,0,1-2.31-.14q-1.331-.139-2.1-0.14-2.871,0-2.87,2.38,0,2.241,2.59,2.24a5.969,5.969,0,0,0,1.12-.14,17.592,17.592,0,0,1,1.96-.35,1.627,1.627,0,0,1,1.715,1.47,49.788,49.788,0,0,1,.315,7.42v14.7q-0.143,3.43-2.067,3.43a0.418,0.418,0,0,1-.286-0.07l-1.782-.35a1.954,1.954,0,0,1-.428-0.07h-0.428q-2.711,0-2.709,2.17,0,2.381,2.8,2.38,0.63,0,3.64-.28,2.239-.21,3.08-0.21a35.731,35.731,0,0,1,4.06.28,25.377,25.377,0,0,0,2.94.21q3.15,0,3.15-2.24,0-2.31-2.73-2.31h-0.49a1.4,1.4,0,0,1-.42.1,5.923,5.923,0,0,1-1.47.392q-1.26,0-1.54-2.392-0.07-.492-0.07-3.306V236.24q0-6.824,2.03-9.569a8.2,8.2,0,0,1,7.07-3.376q4.2,0,5.845,2.392t1.645,8.513v10.2l-0.21,3.308q-0.071,3.588-1.75,3.587a5.636,5.636,0,0,1-1.47-.294,2.9,2.9,0,0,0-1.19-.2,1.888,1.888,0,0,0-2.1,2.17q0,2.381,2.87,2.38a19.879,19.879,0,0,0,3.08-.28,20.569,20.569,0,0,1,3.22-.28,25.465,25.465,0,0,1,3.115.28,25.449,25.449,0,0,0,3.115.28q3.289,0,3.29-2.275a2.187,2.187,0,0,0-.665-1.62,2.256,2.256,0,0,0-1.645-.655,7.806,7.806,0,0,0-1.225.14,7.7,7.7,0,0,1-1.225.14,1.664,1.664,0,0,1-1.645-1.645,61.32,61.32,0,0,1-.315-8.225v-4.97q0-6.789,1.533-9.52,1.952-3.429,6.9-3.43a8.513,8.513,0,0,1,4.6,1.26,6.325,6.325,0,0,1,2.754,3.465,24.35,24.35,0,0,1,.732,7.035v8.89a34.208,34.208,0,0,1-.385,5.95,1.431,1.431,0,0,1-1.505,1.19,3.62,3.62,0,0,1-1.12-.14q-1.121-.139-1.4-0.14-2.241,0-2.24,2.1,0,2.451,2.94,2.45,1.189,0,3.465-.245t3.465-.245a31.037,31.037,0,0,1,3.255.245,30.848,30.848,0,0,0,3.185.245q2.8,0,2.8-2.45,0-2.1-2.426-2.1a6.61,6.61,0,0,0-1.457.245,6.535,6.535,0,0,1-1.456.245q-1.457,0-1.8-2.525-0.069-.63-0.069-3.508V233.2a21.454,21.454,0,0,0-.91-7.3,10.122,10.122,0,0,0-4.83-5.332,14.913,14.913,0,0,0-7.14-1.683,14.449,14.449,0,0,0-6.3,1.19,14.742,14.742,0,0,0-4.83,4.13q-3.221-5.319-10.08-5.32a12.145,12.145,0,0,0-5.6,1.155,16.454,16.454,0,0,0-4.76,4.165v-2.03q0-2.03-1.68-2.03h0Zm67.535,8.75q0.057-3.78.113-4.34,0-.279.056-0.84t0.056-.84q0-2.73-2.03-2.73a12.777,12.777,0,0,0-1.715.175,12.626,12.626,0,0,1-1.715.175q-0.63,0-2.87-.28a17.629,17.629,0,0,0-1.89-.07q-3.081,0-3.08,2.38,0,2.241,2.543,2.24a7.241,7.241,0,0,0,1.518-.245,7.373,7.373,0,0,1,1.59-.245q1.765,0,2.119,4.41v17.92q-0.355,4.481-2.049,4.48a9.605,9.605,0,0,1-1.66-.21,9.63,9.63,0,0,0-1.659-.21,2.083,2.083,0,0,0-2.4,2.31q0,2.381,2.809,2.38a36.293,36.293,0,0,0,3.652-.35,33.363,33.363,0,0,1,4.075-.28,27.487,27.487,0,0,1,3.407.315,27.426,27.426,0,0,0,3.406.315,3.439,3.439,0,0,0,2.212-.7,2.09,2.09,0,0,0,.879-1.68q0-2.31-2.66-2.31a2.989,2.989,0,0,0-1.05.14,10.467,10.467,0,0,1-1.75.35q-1.541,0-1.89-3.15-0.071-.63-0.07-4.13v-9.1q0-3.009.055-5.88h0Zm-0.93-13.615a3.771,3.771,0,0,0,1.155-2.765,3.66,3.66,0,0,0-1.155-2.73,3.973,3.973,0,0,0-5.53,0,3.66,3.66,0,0,0-1.155,2.73A3.91,3.91,0,0,0,706.377,215.28Zm19.914,4.795q-0.071,0-1.89.175a9.681,9.681,0,0,1-1.96.175l-2.59-.28a2.982,2.982,0,0,0-.7-0.07q-3.15,0-3.15,2.31,0,2.241,2.567,2.24a8.87,8.87,0,0,0,1.462-.175,8.96,8.96,0,0,1,1.461-.175,1.665,1.665,0,0,1,1.605.875,8.961,8.961,0,0,1,.605,3.255V247.1q-0.072,4.06-2.21,4.06a8.839,8.839,0,0,1-1.889-.21,7.541,7.541,0,0,0-1.319-.21,2,2,0,0,0-2.282,2.24q0,2.381,2.94,2.38,0.42,0,3.5-.35a36.468,36.468,0,0,1,3.92-.28,25.532,25.532,0,0,1,3.43.21q3.079,0.42,3.64.42,2.8,0,2.8-2.275,0-2.345-2.17-2.345a6.939,6.939,0,0,0-1.61.245,6.757,6.757,0,0,1-1.54.245,1.539,1.539,0,0,1-1.54-1.12,13.87,13.87,0,0,1-.42-4.2V236.6q0-6.579,1.674-9.31,2.439-3.99,8.019-3.99a8.9,8.9,0,0,1,5.229,1.61,6.751,6.751,0,0,1,2.72,4.13,24.877,24.877,0,0,1,.348,5.11v13.16q-0.144,3.851-1.856,3.85a11.865,11.865,0,0,1-1.712-.28,6.769,6.769,0,0,0-1.285-.14q-2.427,0-2.427,2.17,0,2.451,2.8,2.45,0.21,0,3.71-.42a26.645,26.645,0,0,1,3.01-.14,34.112,34.112,0,0,1,4.2.28,29.735,29.735,0,0,0,3.22.28,3.071,3.071,0,0,0,2.03-.7,2.186,2.186,0,0,0,.84-1.75,2.042,2.042,0,0,0-.665-1.54,2.215,2.215,0,0,0-1.575-.63,9.916,9.916,0,0,0-1.435.175,10.1,10.1,0,0,1-1.645.175q-1.54,0-1.89-2.38-0.07-.56-0.07-3.57v-13.3a16.607,16.607,0,0,0-.98-6.23,10.072,10.072,0,0,0-4.55-4.795,14.143,14.143,0,0,0-7.14-1.925,13.548,13.548,0,0,0-11.2,5.32v-1.994a1.843,1.843,0,0,0-2.03-2.136h0Zm63.42,3.22a14.457,14.457,0,0,0-10.85-4.41,15.192,15.192,0,0,0-12.04,5.32q-4.62,5.321-4.62,13.86,0,8.331,4.34,13.265t11.69,4.935a16.829,16.829,0,0,0,10.5-3.535q4.62-3.534,4.62-8.085,0-2.66-2.59-2.66a2.172,2.172,0,0,0-2.31,1.68l-0.63,2.03a7.684,7.684,0,0,1-3.325,4.27,10.435,10.435,0,0,1-13.475-1.82,12.592,12.592,0,0,1-3.15-8.75,1.02,1.02,0,0,1,.28-0.805,1.953,1.953,0,0,1,1.19-.245H791.6q1.68,0,2.03-.595a8.617,8.617,0,0,0,.35-3.255A15.446,15.446,0,0,0,789.711,223.3Zm-17.92,3.045a10.552,10.552,0,0,1,7.14-2.835,9.12,9.12,0,0,1,6.58,2.73,8.705,8.705,0,0,1,2.8,6.44q0,0.981-1.47.98h-16.73q-1.541,0-1.54-.98A8.33,8.33,0,0,1,771.791,226.34Zm36.05-6.265q-0.071,0-1.89.175a9.681,9.681,0,0,1-1.96.175l-2.59-.28a2.982,2.982,0,0,0-.7-0.07q-3.15,0-3.15,2.31,0,2.241,2.567,2.24a8.86,8.86,0,0,0,1.461-.175,8.97,8.97,0,0,1,1.462-.175,1.663,1.663,0,0,1,1.6.875,8.956,8.956,0,0,1,.606,3.255V247.1q-0.072,4.06-2.21,4.06a8.839,8.839,0,0,1-1.889-.21,7.541,7.541,0,0,0-1.319-.21,2,2,0,0,0-2.282,2.24q0,2.381,2.94,2.38,0.42,0,3.5-.35a36.468,36.468,0,0,1,3.92-.28,25.532,25.532,0,0,1,3.43.21q3.079,0.42,3.64.42,2.8,0,2.8-2.275,0-2.345-2.17-2.345a6.939,6.939,0,0,0-1.61.245,6.757,6.757,0,0,1-1.54.245,1.539,1.539,0,0,1-1.54-1.12,13.87,13.87,0,0,1-.42-4.2V236.6q0-6.579,1.673-9.31,2.441-3.99,8.02-3.99a8.907,8.907,0,0,1,5.229,1.61,6.754,6.754,0,0,1,2.719,4.13,24.783,24.783,0,0,1,.349,5.11v13.16q-0.144,3.851-1.856,3.85a11.87,11.87,0,0,1-1.713-.28,6.759,6.759,0,0,0-1.284-.14q-2.429,0-2.427,2.17,0,2.451,2.8,2.45,0.21,0,3.71-.42a26.645,26.645,0,0,1,3.01-.14,34.112,34.112,0,0,1,4.2.28,29.735,29.735,0,0,0,3.22.28,3.071,3.071,0,0,0,2.03-.7,2.186,2.186,0,0,0,.84-1.75,2.042,2.042,0,0,0-.665-1.54,2.215,2.215,0,0,0-1.575-.63,9.916,9.916,0,0,0-1.435.175,10.1,10.1,0,0,1-1.645.175q-1.541,0-1.89-2.38-0.071-.56-0.07-3.57v-13.3a16.607,16.607,0,0,0-.98-6.23,10.072,10.072,0,0,0-4.55-4.795,14.143,14.143,0,0,0-7.14-1.925,13.548,13.548,0,0,0-11.2,5.32v-1.994a1.843,1.843,0,0,0-2.03-2.136h0Z" transform="translate(-268 -98)"/>
  </g>
</svg>
